<?xml version="1.0" encoding="UTF-8" standalone="no"?>
<!DOCTYPE svg PUBLIC "-//W3C//DTD SVG 1.1//EN"
 "http://www.w3.org/Graphics/SVG/1.1/DTD/svg11.dtd">
<!-- Generated by graphviz version 2.43.0 (0)
 -->
<!-- Title: F3 seismic attributes Pages: 1 -->
<svg width="607pt" height="392pt"
 viewBox="0.00 0.00 606.69 392.00" xmlns="http://www.w3.org/2000/svg" xmlns:xlink="http://www.w3.org/1999/xlink">
<g id="graph0" class="graph" transform="scale(1 1) rotate(0) translate(4 388)">
<title>F3 seismic attributes</title>
<polygon fill="white" stroke="transparent" points="-4,4 -4,-388 602.69,-388 602.69,4 -4,4"/>
<!-- 22804304 -->
<g id="node1" class="node">
<title>22804304</title>
<ellipse fill="none" stroke="black" cx="102.69" cy="-279" rx="102.88" ry="18"/>
<text text-anchor="middle" x="102.69" y="-275.3" font-family="Times,serif" font-size="14.00">Envelope.transform</text>
</g>
<!-- 421753388 -->
<g id="node4" class="node">
<title>421753388</title>
<ellipse fill="none" stroke="black" cx="376.69" cy="-192" rx="153.27" ry="18"/>
<text text-anchor="middle" x="376.69" y="-188.3" font-family="Times,serif" font-size="14.00">ArraysToDataFrame.transform</text>
</g>
<!-- 22804304&#45;&gt;421753388 -->
<g id="edge4" class="edge">
<title>22804304&#45;&gt;421753388</title>
<path fill="none" stroke="black" d="M151.05,-263C196.85,-248.79 265.81,-227.4 315.44,-212"/>
<polygon fill="black" stroke="black" points="316.58,-215.31 325.1,-209.01 314.51,-208.63 316.58,-215.31"/>
<text text-anchor="middle" x="288.69" y="-231.8" font-family="Times,serif" font-size="14.00">envelope</text>
</g>
<!-- 3325 -->
<g id="node2" class="node">
<title>3325</title>
<ellipse fill="none" stroke="black" cx="376.69" cy="-366" rx="83.69" ry="18"/>
<text text-anchor="middle" x="376.69" y="-362.3" font-family="Times,serif" font-size="14.00">MyDataset.load</text>
</g>
<!-- 3325&#45;&gt;22804304 -->
<g id="edge1" class="edge">
<title>3325&#45;&gt;22804304</title>
<path fill="none" stroke="black" d="M331.14,-350.87C284.49,-336.4 211.8,-313.85 160.98,-298.08"/>
<polygon fill="black" stroke="black" points="161.71,-294.64 151.12,-295.02 159.64,-301.33 161.71,-294.64"/>
<text text-anchor="middle" x="261.69" y="-318.8" font-family="Times,serif" font-size="14.00">X</text>
</g>
<!-- 421753468 -->
<g id="node3" class="node">
<title>421753468</title>
<ellipse fill="none" stroke="black" cx="376.69" cy="-279" rx="153.27" ry="18"/>
<text text-anchor="middle" x="376.69" y="-275.3" font-family="Times,serif" font-size="14.00">InstantaneousPhase.transform</text>
</g>
<!-- 3325&#45;&gt;421753468 -->
<g id="edge2" class="edge">
<title>3325&#45;&gt;421753468</title>
<path fill="none" stroke="black" d="M376.69,-347.8C376.69,-336.16 376.69,-320.55 376.69,-307.24"/>
<polygon fill="black" stroke="black" points="380.19,-307.18 376.69,-297.18 373.19,-307.18 380.19,-307.18"/>
<text text-anchor="middle" x="381.69" y="-318.8" font-family="Times,serif" font-size="14.00">X</text>
</g>
<!-- 3325&#45;&gt;421753388 -->
<g id="edge3" class="edge">
<title>3325&#45;&gt;421753388</title>
<path fill="none" stroke="black" d="M443.13,-354.96C477.84,-345.98 517.41,-329.01 538.69,-297 566.01,-255.91 507.94,-227.62 453.88,-211.04"/>
<polygon fill="black" stroke="black" points="454.79,-207.66 444.21,-208.18 452.81,-214.37 454.79,-207.66"/>
<text text-anchor="middle" x="571.69" y="-275.3" font-family="Times,serif" font-size="14.00">dataset</text>
</g>
<!-- 421753468&#45;&gt;421753388 -->
<g id="edge5" class="edge">
<title>421753468&#45;&gt;421753388</title>
<path fill="none" stroke="black" d="M376.69,-260.8C376.69,-249.16 376.69,-233.55 376.69,-220.24"/>
<polygon fill="black" stroke="black" points="380.19,-220.18 376.69,-210.18 373.19,-220.18 380.19,-220.18"/>
<text text-anchor="middle" x="398.19" y="-231.8" font-family="Times,serif" font-size="14.00">phase</text>
</g>
<!-- 421753429 -->
<g id="node5" class="node">
<title>421753429</title>
<ellipse fill="none" stroke="black" cx="376.69" cy="-105" rx="137.28" ry="18"/>
<text text-anchor="middle" x="376.69" y="-101.3" font-family="Times,serif" font-size="14.00">PersistDaskData.transform</text>
</g>
<!-- 421753388&#45;&gt;421753429 -->
<g id="edge6" class="edge">
<title>421753388&#45;&gt;421753429</title>
<path fill="none" stroke="black" d="M376.69,-173.8C376.69,-162.16 376.69,-146.55 376.69,-133.24"/>
<polygon fill="black" stroke="black" points="380.19,-133.18 376.69,-123.18 373.19,-133.18 380.19,-133.18"/>
<text text-anchor="middle" x="381.69" y="-144.8" font-family="Times,serif" font-size="14.00">X</text>
</g>
<!-- 421752856 -->
<g id="node6" class="node">
<title>421752856</title>
<ellipse fill="none" stroke="black" cx="376.69" cy="-18" rx="98.58" ry="18"/>
<text text-anchor="middle" x="376.69" y="-14.3" font-family="Times,serif" font-size="14.00">KMeans.fit_predict</text>
</g>
<!-- 421753429&#45;&gt;421752856 -->
<g id="edge7" class="edge">
<title>421753429&#45;&gt;421752856</title>
<path fill="none" stroke="black" d="M376.69,-86.8C376.69,-75.16 376.69,-59.55 376.69,-46.24"/>
<polygon fill="black" stroke="black" points="380.19,-46.18 376.69,-36.18 373.19,-46.18 380.19,-46.18"/>
<text text-anchor="middle" x="381.69" y="-57.8" font-family="Times,serif" font-size="14.00">X</text>
</g>
</g>
</svg>
